<?xml version="1.0" encoding="utf-8"?>
<!-- Generator: Adobe Illustrator 26.3.1, SVG Export Plug-In . SVG Version: 6.00 Build 0)  -->
<svg version="1.1" id="Layer_1" xmlns="http://www.w3.org/2000/svg" xmlns:xlink="http://www.w3.org/1999/xlink" x="0px" y="0px"
	 viewBox="0 0 595.3 251.4" style="enable-background:new 0 0 595.3 251.4;" xml:space="preserve">
<style type="text/css">
	.st0{enable-background:new    ;}
	.st1{fill:#BFBFBF;}
	.st2{fill:#FFFFFF;}
	.st3{fill:#1C75BC;}
	.st4{fill:#BE1E2D;}
</style>
<g class="st0">
	<path class="st1" d="M16.6,21.2L16.6,21.2l-1.8,18.7H8.3L4.9,4.8h4.6L12,32.5h0.1l2.2-27.7h4.6l2.3,27.9h0.1l2.4-27.9h4.2
		l-3.4,35.1h-6.3L16.6,21.2z"/>
	<path class="st1" d="M35.1,19.6h6.5v5h-6.5v10.3h8.2v5h-13V4.8h13v5h-8.2V19.6z"/>
	<path class="st1" d="M46.3,4.8h4.8v30.1h7.8v5H46.3V4.8z"/>
	<path class="st1" d="M74.7,26.8v4.7c0,5.6-2.4,8.8-7.1,8.8s-7.1-3.2-7.1-8.8V13.2c0-5.6,2.4-8.8,7.1-8.8s7.1,3.2,7.1,8.8v3.4h-4.5
		v-3.8c0-2.5-1-3.5-2.5-3.5s-2.5,1-2.5,3.5v19c0,2.5,1,3.4,2.5,3.4s2.5-0.9,2.5-3.4v-5C70.2,26.8,74.7,26.8,74.7,26.8z"/>
	<path class="st1" d="M77.3,13.2c0-5.6,2.6-8.8,7.2-8.8c4.7,0,7.2,3.2,7.2,8.8v18.3c0,5.6-2.6,8.8-7.2,8.8c-4.7,0-7.2-3.2-7.2-8.8
		V13.2z M82,31.9c0,2.5,1,3.5,2.5,3.5s2.5-1,2.5-3.5v-19c0-2.5-1-3.5-2.5-3.5s-2.5,1-2.5,3.5V31.9z"/>
	<path class="st1" d="M104.8,29.7L104.8,29.7l3.3-25h6.6v35.1h-4.5V14.7h-0.1l-3.2,25.2h-4.5l-3.5-24.8l0,0v24.8h-4.2V4.8h6.6
		L104.8,29.7z"/>
	<path class="st1" d="M122.9,19.6h6.5v5h-6.5v10.3h8.2v5h-13V4.8h13v5h-8.2C122.9,9.8,122.9,19.6,122.9,19.6z"/>
	<path class="st1" d="M139.4,4.8h14.7v5h-5v30.1h-4.8V9.8h-5v-5H139.4z"/>
	<path class="st1" d="M155.8,13.2c0-5.6,2.6-8.8,7.2-8.8c4.7,0,7.2,3.2,7.2,8.8v18.3c0,5.6-2.6,8.8-7.2,8.8c-4.7,0-7.2-3.2-7.2-8.8
		V13.2z M160.6,31.9c0,2.5,1,3.5,2.5,3.5s2.5-1,2.5-3.5v-19c0-2.5-1-3.5-2.5-3.5s-2.5,1-2.5,3.5V31.9z"/>
</g>
<g>
	<path class="st1" d="M19.8,92h18.3v12.1H19.8V129h23v12.1H6.5V56.2h36.4v12.1h-23V92C19.9,92,19.8,92,19.8,92z"/>
	<path class="st1" d="M70.5,56.2v65.5c0,6.1,2.7,8.2,6.9,8.2c4.2,0,6.9-2.2,6.9-8.2V56.2h12.6v64.7c0,13.6-6.8,21.4-19.9,21.4
		s-19.9-7.8-19.9-21.4V56.2H70.5z"/>
	<path class="st1" d="M130.7,55.2c13,0,19.7,7.8,19.7,21.4v2.7h-12.6v-3.5c0-6.1-2.4-8.4-6.7-8.4c-4.2,0-6.7,2.3-6.7,8.4
		c0,6.2,2.7,10.8,11.4,18.4c11.2,9.8,14.7,16.9,14.7,26.6c0,13.6-6.8,21.4-19.9,21.4s-19.9-7.8-19.9-21.4v-5.2h12.6v6.1
		c0,6.1,2.7,8.2,6.9,8.2s6.9-2.2,6.9-8.2c0-6.2-2.7-10.8-11.4-18.4C114.5,93.5,111,86.4,111,76.7C111,63,117.7,55.2,130.7,55.2z"/>
	<path class="st1" d="M164.8,56.2h13.3v84.9h-13.3V56.2z"/>
	<path class="st1" d="M234,77.2v11c0,13.6-6.6,21-19.9,21h-6.3v31.9h-13.3V56.2h19.7C227.5,56.2,234,63.6,234,77.2z M207.8,68.3V97
		h6.3c4.2,0,6.6-1.9,6.6-8V76.3c0-6.1-2.3-8-6.6-8H207.8z"/>
	<path class="st1" d="M285.6,109.4v11.3c0,13.6-6.8,21.4-19.9,21.4s-19.9-7.8-19.9-21.4V76.6c0-13.6,6.8-21.4,19.9-21.4
		c13.1,0,19.9,7.8,19.9,21.4v8.2H273v-9.1c0-6.1-2.7-8.4-6.9-8.4c-4.2,0-6.9,2.3-6.9,8.4v45.9c0,6.1,2.7,8.2,6.9,8.2
		c4.2,0,6.9-2.2,6.9-8.2v-12.1L285.6,109.4L285.6,109.4z"/>
	<path class="st1" d="M299.3,76.6c0-13.6,7.2-21.4,20.3-21.4c13.1,0,20.3,7.8,20.3,21.4v44.2c0,13.6-7.2,21.4-20.3,21.4
		c-13.1,0-20.3-7.8-20.3-21.4V76.6z M312.6,121.6c0,6.1,2.7,8.4,6.9,8.4c4.2,0,6.9-2.3,6.9-8.4V75.7c0-6.1-2.7-8.4-6.9-8.4
		c-4.2,0-6.9,2.3-6.9,8.4V121.6z"/>
	<path class="st1" d="M374.7,67c-4.3,0-6.9,2.3-6.9,8.4v9.1h-12.7v-8.3c0-13.6,6.8-21.4,20-21.4s20,7.8,20,21.4
		c0,11.3-4.1,20.5-16.6,33.7c-7.9,8.5-10.1,12.5-10.1,17.1c0,0.6,0,1.2,0.1,1.8h25.3V141h-38.7v-10.5c0-9.5,3.4-16.7,13.4-27.2
		c10.2-10.8,13.2-17.5,13.2-26.7C381.6,69.1,379,67,374.7,67z"/>
	<path class="st1" d="M408.9,76.3c0-13.6,7.2-21.4,20.3-21.4c13.2,0,20.3,7.8,20.3,21.4v44.3c0,13.6-7.2,21.4-20.3,21.4
		c-13.2,0-20.3-7.8-20.3-21.4V76.3z M422.3,121.5c0,6.1,2.7,8.4,6.9,8.4s6.9-2.3,6.9-8.4v-46c0-6.1-2.7-8.4-6.9-8.4
		s-6.9,2.3-6.9,8.4V121.5z"/>
	<path class="st1" d="M484.6,67c-4.3,0-6.9,2.3-6.9,8.4v9.1H465v-8.3c0-13.6,6.8-21.4,20-21.4s20,7.8,20,21.4
		c0,11.3-4.1,20.5-16.6,33.7c-7.9,8.5-10.1,12.5-10.1,17.1c0,0.6,0,1.2,0.1,1.8h25.3V141H465v-10.5c0-9.5,3.4-16.7,13.4-27.2
		c10.2-10.8,13.2-17.5,13.2-26.7C491.5,69.1,488.8,67,484.6,67z"/>
	<path class="st1" d="M544.1,76.8c0-7.7-2.7-9.7-6.9-9.7s-6.9,2.3-6.9,8.4v5.4h-12.7v-4.6c0-13.6,6.8-21.4,20-21.4s20,7.8,20,21.4
		v2.2c0,9.1-2.9,14.7-9.4,17.4v0.2c6.7,2.9,9.4,9.1,9.4,17.8v6.7c0,13.6-6.8,21.4-20,21.4s-20-7.8-20-21.4v-7.1h12.7v7.9
		c0,6.1,2.7,8.4,6.9,8.4s6.9-2.1,6.9-9.6v-6.7c0-7.9-2.7-10.8-8.8-10.8h-4.5V90.5h5.2c5,0,8-2.2,8-9L544.1,76.8L544.1,76.8z"/>
</g>
<g>
	<path class="st1" d="M15.5,160.8c0-2.3-0.8-2.9-2.1-2.9s-2.1,0.7-2.1,2.5v1.6H7.5v-1.4c0-4.1,2-6.4,6-6.4c3.9,0,6,2.3,6,6.4v0.7
		c0,2.7-0.9,4.4-2.8,5.2v0.1c2,0.9,2.8,2.7,2.8,5.3v2c0,4.1-2,6.4-6,6.4c-3.9,0-6-2.3-6-6.4v-2.1h3.8v2.4c0,1.8,0.8,2.5,2.1,2.5
		s2.1-0.6,2.1-2.9v-2c0-2.4-0.8-3.2-2.6-3.2h-1.3V165h1.6c1.5,0,2.4-0.7,2.4-2.7L15.5,160.8L15.5,160.8z"/>
	<path class="st1" d="M25,157.7c3.1,0,3.8-1.5,4.4-3.2h2.7V180h-4v-19.4H25V157.7z"/>
	<path class="st1" d="M39.9,152.8c2.3,0,3.4,1.4,3.4,3.7v0.5h-2.2v-0.6c0-1.1-0.4-1.5-1.2-1.5c-0.7,0-1.2,0.4-1.2,1.5s0.5,1.9,2,3.2
		c2,1.7,2.6,3,2.6,4.6c0,2.4-1.2,3.7-3.5,3.7s-3.5-1.4-3.5-3.7v-0.9h2.2v1.1c0,1.1,0.5,1.4,1.2,1.4s1.2-0.4,1.2-1.4
		c0-1.1-0.5-1.9-2-3.2c-2-1.7-2.6-3-2.6-4.6C36.5,154.2,37.6,152.8,39.9,152.8z"/>
	<path class="st1" d="M44.3,153h7.2v2.1H49v12.7h-2.3v-12.7h-2.4V153z"/>
	<path class="st1" d="M63.4,165.2h5.5v3.6h-5.5v7.5h6.9v3.6H59.4v-25.5h10.9v3.6h-6.9V165.2z"/>
	<path class="st1" d="M77,154.5v19.7c0,1.8,0.8,2.5,2.1,2.5c1.3,0,2.1-0.7,2.1-2.5v-19.7H85v19.4c0,4.1-2,6.4-6,6.4
		c-3.9,0-6-2.3-6-6.4v-19.4H77z"/>
	<path class="st1" d="M96.4,180c-0.2-0.7-0.4-1.1-0.4-3.1v-4c0-2.4-0.8-3.2-2.6-3.2H92v10.4h-4v-25.5h6c4.1,0,5.9,1.9,5.9,5.9v2
		c0,2.6-0.8,4.3-2.6,5.1v0.1c2,0.8,2.7,2.7,2.7,5.4v3.9c0,1.2,0,2.1,0.4,3.1L96.4,180L96.4,180z M92.1,158.1v7.8h1.6
		c1.5,0,2.4-0.7,2.4-2.7v-2.5c0-1.8-0.6-2.6-2-2.6H92.1z"/>
	<path class="st1" d="M102.8,160.6c0-4.1,2.1-6.4,6.1-6.4c3.9,0,6.1,2.3,6.1,6.4v13.2c0,4.1-2.1,6.4-6.1,6.4c-3.9,0-6.1-2.3-6.1-6.4
		V160.6z M106.8,174.1c0,1.8,0.8,2.5,2.1,2.5s2.1-0.7,2.1-2.5v-13.8c0-1.8-0.8-2.5-2.1-2.5s-2.1,0.7-2.1,2.5V174.1z"/>
	<path class="st1" d="M129.8,160.8v3.3c0,4.1-2,6.3-6,6.3h-1.9v9.6h-4v-25.5h5.9C127.8,154.5,129.8,156.7,129.8,160.8z M121.9,158.1
		v8.6h1.9c1.3,0,2-0.6,2-2.4v-3.8c0-1.8-0.7-2.4-2-2.4L121.9,158.1L121.9,158.1z"/>
	<path class="st1" d="M136,165.2h5.5v3.6H136v7.5h6.9v3.6H132v-25.5h10.9v3.6H136V165.2z"/>
	<path class="st1" d="M158.8,180h-4l-0.8-4.7h-4.9l-0.7,4.6h-3.7l4.1-25.5h5.9L158.8,180z M149.6,171.9h3.9l-1.9-12.9h-0.1
		L149.6,171.9z"/>
	<path class="st1" d="M164.7,161.5L164.7,161.5l-0.1,18.5H161v-25.5h5l4,15.2h0.1v-15.2h3.6V180h-4.1L164.7,161.5z"/>
	<path class="st1" d="M188.4,154.2c3.9,0,5.9,2.3,5.9,6.4v0.8h-3.8v-1.1c0-1.8-0.7-2.5-2-2.5s-2,0.7-2,2.5c0,1.9,0.8,3.2,3.4,5.5
		c3.3,2.9,4.4,5.1,4.4,8c0,4.1-2,6.4-6,6.4c-3.9,0-6-2.3-6-6.4v-1.5h3.8v1.8c0,1.8,0.8,2.5,2.1,2.5s2.1-0.7,2.1-2.5
		c0-1.9-0.8-3.2-3.4-5.5c-3.3-2.9-4.4-5.1-4.4-8C182.5,156.5,184.5,154.2,188.4,154.2z"/>
	<path class="st1" d="M197,154.5h4V180h-4V154.5z"/>
	<path class="st1" d="M210.4,165.8h5.6v8.1c0,4.1-2,6.4-6,6.4c-3.9,0-6-2.3-6-6.4v-13.2c0-4.1,2-6.4,6-6.4c3.9,0,6,2.3,6,6.4v2.5
		h-3.8v-2.7c0-1.8-0.8-2.5-2.1-2.5s-2.1,0.7-2.1,2.5v13.8c0,1.8,0.8,2.5,2.1,2.5s2.1-0.7,2.1-2.5v-4.7h-1.8V165.8z"/>
	<path class="st1" d="M222.6,161.5L222.6,161.5l-0.1,18.5h-3.6v-25.5h5l4,15.2h0.1v-15.2h3.6V180h-4.1L222.6,161.5z"/>
	<path class="st1" d="M247.8,180h-4l-0.7-4.6h-4.9l-0.7,4.6h-3.7l4.1-25.5h5.9L247.8,180z M238.7,171.9h3.9l-1.9-12.9h-0.1
		L238.7,171.9z"/>
	<path class="st1" d="M250.1,154.5h4v21.8h6.6v3.6h-10.6V154.5z"/>
	<path class="st1" d="M280.7,160.8v3.3c0,4.1-2,6.3-6,6.3h-1.9v9.6h-4v-25.5h5.9C278.8,154.5,280.7,156.7,280.7,160.8z M272.9,158.1
		v8.6h1.9c1.3,0,2-0.6,2-2.4v-3.8c0-1.8-0.7-2.4-2-2.4L272.9,158.1L272.9,158.1z"/>
	<path class="st1" d="M291.4,180c-0.2-0.7-0.4-1.1-0.4-3.1v-4c0-2.4-0.8-3.2-2.6-3.2H287v10.4h-4v-25.5h6c4.1,0,5.9,1.9,5.9,5.9v2
		c0,2.6-0.8,4.3-2.6,5.1v0.1c2,0.8,2.7,2.7,2.7,5.4v3.9c0,1.2,0,2.1,0.4,3.1L291.4,180L291.4,180z M287,158.1v7.8h1.6
		c1.5,0,2.4-0.7,2.4-2.7v-2.5c0-1.8-0.6-2.6-2-2.6H287z"/>
	<path class="st1" d="M297.7,160.6c0-4.1,2.1-6.4,6.1-6.4c3.9,0,6.1,2.3,6.1,6.4v13.2c0,4.1-2.1,6.4-6.1,6.4c-3.9,0-6.1-2.3-6.1-6.4
		V160.6z M301.7,174.1c0,1.8,0.8,2.5,2.1,2.5c1.3,0,2.1-0.7,2.1-2.5v-13.8c0-1.8-0.8-2.5-2.1-2.5c-1.3,0-2.1,0.7-2.1,2.5V174.1z"/>
	<path class="st1" d="M324.5,170.5v3.4c0,4.1-2,6.4-6,6.4c-3.9,0-6-2.3-6-6.4v-13.2c0-4.1,2-6.4,6-6.4c3.9,0,6,2.3,6,6.4v2.5h-3.8
		v-2.7c0-1.8-0.8-2.5-2.1-2.5c-1.3,0-2.1,0.7-2.1,2.5v13.8c0,1.8,0.8,2.5,2.1,2.5c1.3,0,2.1-0.7,2.1-2.5v-3.6h3.8V170.5z"/>
	<path class="st1" d="M331.3,165.2h5.5v3.6h-5.5v7.5h6.9v3.6h-10.9v-25.5h10.9v3.6h-6.9V165.2z"/>
	<path class="st1" d="M346.5,154.2c3.9,0,5.9,2.3,5.9,6.4v0.8h-3.8v-1.1c0-1.8-0.7-2.5-2-2.5s-2,0.7-2,2.5c0,1.9,0.8,3.2,3.4,5.5
		c3.3,2.9,4.4,5.1,4.4,8c0,4.1-2,6.4-6,6.4c-3.9,0-6-2.3-6-6.4v-1.5h3.8v1.8c0,1.8,0.8,2.5,2.1,2.5s2.1-0.7,2.1-2.5
		c0-1.9-0.8-3.2-3.4-5.5c-3.3-2.9-4.4-5.1-4.4-8C340.6,156.5,342.6,154.2,346.5,154.2z"/>
	<path class="st1" d="M360.5,154.2c3.9,0,5.9,2.3,5.9,6.4v0.8h-3.8v-1.1c0-1.8-0.7-2.5-2-2.5s-2,0.7-2,2.5c0,1.9,0.8,3.2,3.4,5.5
		c3.3,2.9,4.4,5.1,4.4,8c0,4.1-2,6.4-6,6.4c-3.9,0-6-2.3-6-6.4v-1.5h3.8v1.8c0,1.8,0.8,2.5,2.1,2.5s2.1-0.7,2.1-2.5
		c0-1.9-0.8-3.2-3.4-5.5c-3.3-2.9-4.4-5.1-4.4-8C354.6,156.5,356.6,154.2,360.5,154.2z"/>
	<path class="st1" d="M369.1,154.5h4V180h-4V154.5z"/>
	<path class="st1" d="M380.1,161.5L380.1,161.5L380,180h-3.6v-25.5h5l4,15.2h0.1v-15.2h3.6V180H385L380.1,161.5z"/>
	<path class="st1" d="M398.4,165.8h5.6v8.1c0,4.1-2,6.4-6,6.4c-3.9,0-6-2.3-6-6.4v-13.2c0-4.1,2-6.4,6-6.4c3.9,0,6,2.3,6,6.4v2.5
		h-3.8v-2.7c0-1.8-0.8-2.5-2.1-2.5c-1.3,0-2.1,0.7-2.1,2.5v13.8c0,1.8,0.8,2.5,2.1,2.5c1.3,0,2.1-0.7,2.1-2.5v-4.7h-1.8L398.4,165.8
		L398.4,165.8z"/>
	<path class="st1" d="M424.6,170.5v3.4c0,4.1-2,6.4-6,6.4c-3.9,0-6-2.3-6-6.4v-13.2c0-4.1,2-6.4,6-6.4c3.9,0,6,2.3,6,6.4v2.5h-3.8
		v-2.7c0-1.8-0.8-2.5-2.1-2.5c-1.3,0-2.1,0.7-2.1,2.5v13.8c0,1.8,0.8,2.5,2.1,2.5c1.3,0,2.1-0.7,2.1-2.5v-3.6h3.8V170.5z"/>
	<path class="st1" d="M427.1,160.6c0-4.1,2.1-6.4,6.1-6.4c3.9,0,6.1,2.3,6.1,6.4v13.2c0,4.1-2.1,6.4-6.1,6.4c-3.9,0-6.1-2.3-6.1-6.4
		V160.6z M431.1,174.1c0,1.8,0.8,2.5,2.1,2.5c1.3,0,2.1-0.7,2.1-2.5v-13.8c0-1.8-0.8-2.5-2.1-2.5c-1.3,0-2.1,0.7-2.1,2.5V174.1z"/>
	<path class="st1" d="M445.9,161.5L445.9,161.5l-0.1,18.5h-3.6v-25.5h5l4,15.2h0.1v-15.2h3.6V180h-4.1L445.9,161.5z"/>
	<path class="st1" d="M462.2,165.8h5.2v3.6h-5.2v10.5h-4v-25.5h10.6v3.6h-6.6V165.8z"/>
	<path class="st1" d="M475.2,165.2h5.5v3.6h-5.5v7.5h6.9v3.6h-10.9v-25.5h10.9v3.6h-6.9V165.2z"/>
	<path class="st1" d="M493.3,180c-0.2-0.7-0.4-1.1-0.4-3.1v-4c0-2.4-0.8-3.2-2.6-3.2h-1.4v10.4h-4v-25.5h6c4.1,0,5.9,1.9,5.9,5.9v2
		c0,2.6-0.8,4.3-2.6,5.1v0.1c2,0.8,2.7,2.7,2.7,5.4v3.9c0,1.2,0,2.1,0.4,3.1L493.3,180L493.3,180z M488.9,158.1v7.8h1.6
		c1.5,0,2.4-0.7,2.4-2.7v-2.5c0-1.8-0.6-2.6-2-2.6H488.9z"/>
	<path class="st1" d="M504,165.2h5.5v3.6H504v7.5h6.9v3.6H500v-25.5h10.9v3.6H504V165.2z"/>
	<path class="st1" d="M517.4,161.5L517.4,161.5l-0.1,18.5h-3.6v-25.5h5l4,15.2h0.1v-15.2h3.6V180h-4.1L517.4,161.5z"/>
	<path class="st1" d="M541.3,170.5v3.4c0,4.1-2,6.4-6,6.4c-3.9,0-6-2.3-6-6.4v-13.2c0-4.1,2-6.4,6-6.4c3.9,0,6,2.3,6,6.4v2.5h-3.8
		v-2.7c0-1.8-0.8-2.5-2.1-2.5s-2.1,0.7-2.1,2.5v13.8c0,1.8,0.8,2.5,2.1,2.5s2.1-0.7,2.1-2.5v-3.6h3.8V170.5z"/>
	<path class="st1" d="M548.2,165.2h5.5v3.6h-5.5v7.5h6.9v3.6h-10.9v-25.5h10.9v3.6h-6.9V165.2z"/>
</g>
<g>
	<path class="st2" d="M13.5,158.9c0-2.3-0.8-2.9-2.1-2.9s-2.1,0.7-2.1,2.5v1.6H5.5v-1.4c0-4.1,2-6.4,6-6.4c3.9,0,6,2.3,6,6.4v0.7
		c0,2.7-0.9,4.4-2.8,5.2v0.1c2,0.9,2.8,2.7,2.8,5.3v2c0,4.1-2,6.4-6,6.4c-3.9,0-6-2.3-6-6.4v-2.1h3.8v2.4c0,1.8,0.8,2.5,2.1,2.5
		s2.1-0.6,2.1-2.9v-2c0-2.4-0.8-3.2-2.6-3.2H9.6V163h1.6c1.5,0,2.4-0.7,2.4-2.7L13.5,158.9L13.5,158.9z"/>
	<path class="st2" d="M23,155.8c3.1,0,3.8-1.5,4.4-3.2h2.7v25.5h-4v-19.4H23V155.8z"/>
	<path class="st2" d="M37.9,150.9c2.3,0,3.4,1.4,3.4,3.7v0.5h-2.2v-0.6c0-1.1-0.4-1.5-1.2-1.5c-0.7,0-1.2,0.4-1.2,1.5s0.5,1.9,2,3.2
		c2,1.7,2.6,3,2.6,4.6c0,2.4-1.2,3.7-3.5,3.7s-3.5-1.4-3.5-3.7v-0.9h2.2v1.1c0,1.1,0.5,1.4,1.2,1.4s1.2-0.4,1.2-1.4
		c0-1.1-0.5-1.9-2-3.2c-2-1.7-2.6-3-2.6-4.6C34.5,152.3,35.6,150.9,37.9,150.9z"/>
	<path class="st2" d="M42.3,151.1h7.2v2.1H47V166h-2.3v-12.7h-2.4V151.1z"/>
	<path class="st2" d="M61.4,163.3h5.5v3.6h-5.5v7.5h6.9v3.6H57.4v-25.5h10.9v3.6h-6.9V163.3z"/>
	<path class="st2" d="M75,152.6v19.7c0,1.8,0.8,2.5,2.1,2.5c1.3,0,2.1-0.7,2.1-2.5v-19.7H83V172c0,4.1-2,6.4-6,6.4
		c-3.9,0-6-2.3-6-6.4v-19.4H75z"/>
	<path class="st2" d="M94.4,178.1c-0.2-0.7-0.4-1.1-0.4-3.1v-4c0-2.4-0.8-3.2-2.6-3.2H90v10.4h-4v-25.5h6c4.1,0,5.9,1.9,5.9,5.9v2
		c0,2.6-0.8,4.3-2.6,5.1v0.1c2,0.8,2.7,2.7,2.7,5.4v3.9c0,1.2,0,2.1,0.4,3.1L94.4,178.1L94.4,178.1z M90.1,156.2v7.8h1.6
		c1.5,0,2.4-0.7,2.4-2.7v-2.5c0-1.8-0.6-2.6-2-2.6H90.1z"/>
	<path class="st2" d="M100.8,158.7c0-4.1,2.1-6.4,6.1-6.4c3.9,0,6.1,2.3,6.1,6.4V172c0,4.1-2.1,6.4-6.1,6.4c-3.9,0-6.1-2.3-6.1-6.4
		V158.7z M104.8,172.2c0,1.8,0.8,2.5,2.1,2.5s2.1-0.7,2.1-2.5v-13.8c0-1.8-0.8-2.5-2.1-2.5c-1.3,0-2.1,0.7-2.1,2.5V172.2z"/>
	<path class="st2" d="M127.8,158.9v3.3c0,4.1-2,6.3-6,6.3h-1.9v9.6h-4v-25.5h5.9C125.8,152.6,127.8,154.8,127.8,158.9z M119.9,156.2
		v8.6h1.9c1.3,0,2-0.6,2-2.4v-3.8c0-1.8-0.7-2.4-2-2.4L119.9,156.2L119.9,156.2z"/>
	<path class="st2" d="M134,163.3h5.5v3.6H134v7.5h6.9v3.6H130v-25.5h10.9v3.6H134V163.3z"/>
	<path class="st2" d="M156.8,178.1h-4l-0.7-4.6h-4.9l-0.7,4.6h-3.7l4.1-25.5h5.9L156.8,178.1z M147.6,170h3.9l-1.9-12.9h-0.1
		L147.6,170z"/>
	<path class="st2" d="M162.7,159.6L162.7,159.6l-0.1,18.5H159v-25.5h5l4,15.2h0.1v-15.2h3.6v25.5h-4.1L162.7,159.6z"/>
	<path class="st2" d="M186.4,152.3c3.9,0,5.9,2.3,5.9,6.4v0.8h-3.8v-1.1c0-1.8-0.7-2.5-2-2.5s-2,0.7-2,2.5c0,1.9,0.8,3.2,3.4,5.5
		c3.3,2.9,4.4,5.1,4.4,8c0,4.1-2,6.4-6,6.4c-3.9,0-6-2.3-6-6.4v-1.6h3.8v1.8c0,1.8,0.8,2.5,2.1,2.5s2.1-0.7,2.1-2.5
		c0-1.9-0.8-3.2-3.4-5.5c-3.3-2.9-4.4-5.1-4.4-8C180.5,154.6,182.5,152.3,186.4,152.3z"/>
	<path class="st2" d="M195,152.6h4v25.5h-4V152.6z"/>
	<path class="st2" d="M208.4,163.9h5.6v8.1c0,4.1-2,6.4-6,6.4c-3.9,0-6-2.3-6-6.4v-13.2c0-4.1,2-6.4,6-6.4c3.9,0,6,2.3,6,6.4v2.5
		h-3.8v-2.7c0-1.8-0.8-2.5-2.1-2.5s-2.1,0.7-2.1,2.5v13.8c0,1.8,0.8,2.5,2.1,2.5s2.1-0.7,2.1-2.5v-4.7h-1.8V163.9z"/>
	<path class="st2" d="M220.6,159.6L220.6,159.6l-0.1,18.5h-3.6v-25.5h5l4,15.2h0.1v-15.2h3.6v25.5h-4.1L220.6,159.6z"/>
	<path class="st2" d="M245.8,178.1h-4l-0.7-4.6h-4.9l-0.7,4.6h-3.7l4.1-25.5h5.9L245.8,178.1z M236.7,170h3.9l-1.9-12.9h-0.1
		L236.7,170z"/>
	<path class="st2" d="M248.1,152.6h4v21.8h6.6v3.6h-10.6V152.6z"/>
	<path class="st2" d="M278.7,158.9v3.3c0,4.1-2,6.3-6,6.3h-1.9v9.6h-4v-25.5h5.9C276.8,152.6,278.7,154.8,278.7,158.9z M270.9,156.2
		v8.6h1.9c1.3,0,2-0.6,2-2.4v-3.8c0-1.8-0.7-2.4-2-2.4L270.9,156.2L270.9,156.2z"/>
	<path class="st2" d="M289.4,178.1c-0.2-0.7-0.4-1.1-0.4-3.1v-4c0-2.4-0.8-3.2-2.6-3.2H285v10.4h-4v-25.5h6c4.1,0,5.9,1.9,5.9,5.9v2
		c0,2.6-0.8,4.3-2.6,5.1v0.1c2,0.8,2.7,2.7,2.7,5.4v3.9c0,1.2,0,2.1,0.4,3.1L289.4,178.1L289.4,178.1z M285,156.2v7.8h1.6
		c1.5,0,2.4-0.7,2.4-2.7v-2.5c0-1.8-0.6-2.6-2-2.6H285z"/>
	<path class="st2" d="M295.7,158.7c0-4.1,2.1-6.4,6.1-6.4c3.9,0,6.1,2.3,6.1,6.4V172c0,4.1-2.1,6.4-6.1,6.4c-3.9,0-6.1-2.3-6.1-6.4
		V158.7z M299.7,172.2c0,1.8,0.8,2.5,2.1,2.5c1.3,0,2.1-0.7,2.1-2.5v-13.8c0-1.8-0.8-2.5-2.1-2.5c-1.3,0-2.1,0.7-2.1,2.5V172.2z"/>
	<path class="st2" d="M322.5,168.6v3.4c0,4.1-2,6.4-6,6.4c-3.9,0-6-2.3-6-6.4v-13.2c0-4.1,2-6.4,6-6.4c3.9,0,6,2.3,6,6.4v2.5h-3.8
		v-2.7c0-1.8-0.8-2.5-2.1-2.5c-1.3,0-2.1,0.7-2.1,2.5v13.8c0,1.8,0.8,2.5,2.1,2.5c1.3,0,2.1-0.7,2.1-2.5v-3.6h3.8V168.6z"/>
	<path class="st2" d="M329.3,163.3h5.5v3.6h-5.5v7.5h6.9v3.6h-10.9v-25.5h10.9v3.6h-6.9V163.3z"/>
	<path class="st2" d="M344.5,152.3c3.9,0,5.9,2.3,5.9,6.4v0.8h-3.8v-1.1c0-1.8-0.7-2.5-2-2.5s-2,0.7-2,2.5c0,1.9,0.8,3.2,3.4,5.5
		c3.3,2.9,4.4,5.1,4.4,8c0,4.1-2,6.4-6,6.4c-3.9,0-6-2.3-6-6.4v-1.6h3.8v1.8c0,1.8,0.8,2.5,2.1,2.5s2.1-0.7,2.1-2.5
		c0-1.9-0.8-3.2-3.4-5.5c-3.3-2.9-4.4-5.1-4.4-8C338.6,154.6,340.6,152.3,344.5,152.3z"/>
	<path class="st2" d="M358.5,152.3c3.9,0,5.9,2.3,5.9,6.4v0.8h-3.8v-1.1c0-1.8-0.7-2.5-2-2.5s-2,0.7-2,2.5c0,1.9,0.8,3.2,3.4,5.5
		c3.3,2.9,4.4,5.1,4.4,8c0,4.1-2,6.4-6,6.4c-3.9,0-6-2.3-6-6.4v-1.6h3.8v1.8c0,1.8,0.8,2.5,2.1,2.5s2.1-0.7,2.1-2.5
		c0-1.9-0.8-3.2-3.4-5.5c-3.3-2.9-4.4-5.1-4.4-8C352.6,154.6,354.6,152.3,358.5,152.3z"/>
	<path class="st2" d="M367.1,152.6h4v25.5h-4V152.6z"/>
	<path class="st2" d="M378.1,159.6L378.1,159.6l-0.1,18.5h-3.6v-25.5h5l4,15.2h0.1v-15.2h3.6v25.5H383L378.1,159.6z"/>
	<path class="st2" d="M396.4,163.9h5.6v8.1c0,4.1-2,6.4-6,6.4c-3.9,0-6-2.3-6-6.4v-13.2c0-4.1,2-6.4,6-6.4c3.9,0,6,2.3,6,6.4v2.5
		h-3.8v-2.7c0-1.8-0.8-2.5-2.1-2.5c-1.3,0-2.1,0.7-2.1,2.5v13.8c0,1.8,0.8,2.5,2.1,2.5c1.3,0,2.1-0.7,2.1-2.5v-4.7h-1.8L396.4,163.9
		L396.4,163.9z"/>
	<path class="st2" d="M422.6,168.6v3.4c0,4.1-2,6.4-6,6.4c-3.9,0-6-2.3-6-6.4v-13.2c0-4.1,2-6.4,6-6.4c3.9,0,6,2.3,6,6.4v2.5h-3.8
		v-2.7c0-1.8-0.8-2.5-2.1-2.5c-1.3,0-2.1,0.7-2.1,2.5v13.8c0,1.8,0.8,2.5,2.1,2.5c1.3,0,2.1-0.7,2.1-2.5v-3.6h3.8V168.6z"/>
	<path class="st2" d="M425.1,158.7c0-4.1,2.1-6.4,6.1-6.4c3.9,0,6.1,2.3,6.1,6.4V172c0,4.1-2.1,6.4-6.1,6.4c-3.9,0-6.1-2.3-6.1-6.4
		V158.7z M429.1,172.2c0,1.8,0.8,2.5,2.1,2.5c1.3,0,2.1-0.7,2.1-2.5v-13.8c0-1.8-0.8-2.5-2.1-2.5c-1.3,0-2.1,0.7-2.1,2.5V172.2z"/>
	<path class="st2" d="M443.9,159.6L443.9,159.6l-0.1,18.5h-3.6v-25.5h5l4,15.2h0.1v-15.2h3.6v25.5h-4.1L443.9,159.6z"/>
	<path class="st2" d="M460.2,163.9h5.2v3.6h-5.2V178h-4v-25.5h10.6v3.6h-6.6V163.9z"/>
	<path class="st2" d="M473.1,163.3h5.5v3.6h-5.5v7.5h6.9v3.6h-10.9v-25.5H480v3.6h-6.9V163.3z"/>
	<path class="st2" d="M491.3,178.1c-0.2-0.7-0.4-1.1-0.4-3.1v-4c0-2.4-0.8-3.2-2.6-3.2h-1.4v10.4h-4v-25.5h6c4.1,0,5.9,1.9,5.9,5.9
		v2c0,2.6-0.8,4.3-2.6,5.1v0.1c2,0.8,2.7,2.7,2.7,5.4v3.9c0,1.2,0,2.1,0.4,3.1L491.3,178.1L491.3,178.1z M486.9,156.2v7.8h1.6
		c1.5,0,2.4-0.7,2.4-2.7v-2.5c0-1.8-0.6-2.6-2-2.6H486.9z"/>
	<path class="st2" d="M502,163.3h5.5v3.6H502v7.5h6.9v3.6H498v-25.5h10.9v3.6H502V163.3z"/>
	<path class="st2" d="M515.4,159.6L515.4,159.6l-0.1,18.5h-3.6v-25.5h5l4,15.2h0.1v-15.2h3.6v25.5h-4.1L515.4,159.6z"/>
	<path class="st2" d="M539.3,168.6v3.4c0,4.1-2,6.4-6,6.4c-3.9,0-6-2.3-6-6.4v-13.2c0-4.1,2-6.4,6-6.4c3.9,0,6,2.3,6,6.4v2.5h-3.8
		v-2.7c0-1.8-0.8-2.5-2.1-2.5s-2.1,0.7-2.1,2.5v13.8c0,1.8,0.8,2.5,2.1,2.5s2.1-0.7,2.1-2.5v-3.6h3.8V168.6z"/>
	<path class="st2" d="M546.2,163.3h5.5v3.6h-5.5v7.5h6.9v3.6h-10.9v-25.5h10.9v3.6h-6.9V163.3z"/>
</g>
<g>
	<path class="st3" d="M18.3,90.3h18.3v12.1H18.3v24.9h23v12.1H4.9V54.5h36.4v12.1h-23C18.3,66.6,18.3,90.3,18.3,90.3z"/>
	<path class="st3" d="M69,54.5V120c0,6.1,2.7,8.2,6.9,8.2c4.2,0,6.9-2.2,6.9-8.2V54.5h12.6v64.7c0,13.6-6.8,21.4-19.9,21.4
		s-19.9-7.8-19.9-21.4V54.5H69z"/>
	<path class="st3" d="M129.2,53.5c13,0,19.7,7.8,19.7,21.4v2.7h-12.6V74c0-6.1-2.4-8.4-6.7-8.4c-4.2,0-6.7,2.3-6.7,8.4
		c0,6.2,2.7,10.8,11.4,18.4c11.2,9.8,14.7,16.9,14.7,26.6c0,13.6-6.8,21.4-19.9,21.4s-19.9-7.8-19.9-21.4v-5.2h12.6v6.1
		c0,6.1,2.7,8.2,6.9,8.2s6.9-2.2,6.9-8.2c0-6.2-2.7-10.8-11.4-18.4c-11.2-9.8-14.7-16.9-14.7-26.6C109.5,61.3,116.2,53.5,129.2,53.5
		z"/>
	<path class="st3" d="M163.2,54.5h13.3v84.9h-13.3V54.5z"/>
	<path class="st3" d="M232.5,75.5v11c0,13.6-6.6,21-19.9,21h-6.3v31.9H193V54.5h19.7C225.9,54.5,232.5,61.9,232.5,75.5z M206.3,66.6
		v28.7h6.3c4.2,0,6.6-1.9,6.6-8V74.6c0-6.1-2.3-8-6.6-8H206.3z"/>
	<path class="st3" d="M284.1,107.7V119c0,13.6-6.8,21.4-19.9,21.4s-19.9-7.8-19.9-21.4V74.9c0-13.6,6.8-21.4,19.9-21.4
		c13.1,0,19.9,7.8,19.9,21.4v8.2h-12.6V74c0-6.1-2.7-8.4-6.9-8.4c-4.2,0-6.9,2.3-6.9,8.4v45.9c0,6.1,2.7,8.2,6.9,8.2
		c4.2,0,6.9-2.2,6.9-8.2v-12.1L284.1,107.7L284.1,107.7z"/>
	<path class="st3" d="M297.8,74.9c0-13.6,7.2-21.4,20.3-21.4c13.1,0,20.3,7.8,20.3,21.4V119c0,13.6-7.2,21.4-20.3,21.4
		c-13.1,0-20.3-7.8-20.3-21.4V74.9z M311.1,119.9c0,6.1,2.7,8.4,6.9,8.4c4.2,0,6.9-2.3,6.9-8.4V74c0-6.1-2.7-8.4-6.9-8.4
		c-4.2,0-6.9,2.3-6.9,8.4V119.9z"/>
	<path class="st4" d="M373.2,65.4c-4.3,0-6.9,2.3-6.9,8.4v9.1h-12.7v-8.3c0-13.6,6.8-21.4,20-21.4s20,7.8,20,21.4
		c0,11.3-4.1,20.5-16.6,33.7c-7.9,8.5-10.1,12.5-10.1,17.1c0,0.6,0,1.2,0.1,1.8h25.3v12.2h-38.7v-10.5c0-9.5,3.4-16.7,13.4-27.2
		c10.2-10.8,13.2-17.5,13.2-26.7C380.1,67.4,377.4,65.4,373.2,65.4z"/>
	<path class="st4" d="M407.4,74.6c0-13.6,7.2-21.4,20.3-21.4c13.2,0,20.3,7.8,20.3,21.4v44.3c0,13.6-7.2,21.4-20.3,21.4
		c-13.2,0-20.3-7.8-20.3-21.4V74.6z M420.8,119.8c0,6.1,2.7,8.4,6.9,8.4s6.9-2.3,6.9-8.4v-46c0-6.1-2.7-8.4-6.9-8.4
		s-6.9,2.3-6.9,8.4V119.8z"/>
	<path class="st4" d="M483,65.4c-4.3,0-6.9,2.3-6.9,8.4v9.1h-12.7v-8.3c0-13.6,6.8-21.4,20-21.4s20,7.8,20,21.4
		c0,11.3-4.1,20.5-16.6,33.7c-7.9,8.5-10.1,12.5-10.1,17.1c0,0.6,0,1.2,0.1,1.8h25.3v12.2h-38.7v-10.5c0-9.5,3.4-16.7,13.4-27.2
		C487,90.9,490,84.2,490,75C490,67.4,487.3,65.4,483,65.4z"/>
	<path class="st4" d="M542.6,75.1c0-7.7-2.7-9.7-6.9-9.7s-6.9,2.3-6.9,8.4v5.5H516v-4.6c0-13.6,6.8-21.4,20-21.4s20,7.8,20,21.4v2.2
		c0,9.1-2.9,14.7-9.4,17.4v0.2c6.7,2.9,9.4,9.1,9.4,17.8v6.7c0,13.6-6.8,21.4-20,21.4s-20-7.8-20-21.4v-7.1h12.7v7.9
		c0,6.1,2.7,8.4,6.9,8.4s6.9-2.1,6.9-9.6v-6.7c0-7.9-2.7-10.8-8.8-10.8h-4.5V88.9h5.2c5,0,8-2.2,8-9v-4.8H542.6z"/>
</g>
<g class="st0">
	<path class="st2" d="M14.8,20L14.8,20L13,38.7H6.5L3.1,3.6h4.6l2.5,27.7h0.1l2.2-27.7h4.6l2.3,27.9h0.1L22,3.6h4.2l-3.4,35.1h-6.3
		L14.8,20z"/>
	<path class="st2" d="M33.3,18.4h6.5v5h-6.5v10.3h8.2v5h-13V3.6h13v5h-8.2V18.4z"/>
	<path class="st2" d="M44.5,3.6h4.8v30.1h7.8v5H44.5V3.6z"/>
	<path class="st2" d="M72.9,25.6v4.7c0,5.6-2.4,8.8-7.1,8.8s-7.1-3.2-7.1-8.8V12c0-5.6,2.4-8.8,7.1-8.8s7.1,3.2,7.1,8.8v3.4h-4.5
		v-3.8c0-2.5-1-3.5-2.5-3.5s-2.5,1-2.5,3.5v19c0,2.5,1,3.4,2.5,3.4s2.5-0.9,2.5-3.4v-5H72.9z"/>
	<path class="st2" d="M75.5,12c0-5.6,2.6-8.8,7.2-8.8c4.7,0,7.2,3.2,7.2,8.8v18.3c0,5.6-2.6,8.8-7.2,8.8c-4.7,0-7.2-3.2-7.2-8.8V12z
		 M80.2,30.6c0,2.5,1,3.5,2.5,3.5s2.5-1,2.5-3.5v-19c0-2.5-1-3.5-2.5-3.5s-2.5,1-2.5,3.5V30.6z"/>
	<path class="st2" d="M103,28.5L103,28.5l3.3-25h6.6v35.1h-4.5V13.5h-0.1l-3.2,25.2h-4.5l-3.5-24.8H97v24.8h-4.2V3.6h6.6L103,28.5z"
		/>
	<path class="st2" d="M121.2,18.4h6.5v5h-6.5v10.3h8.2v5h-13V3.6h13v5h-8.2V18.4z"/>
	<path class="st2" d="M137.6,3.6h14.7v5h-5v30.1h-4.8V8.6h-5v-5C137.5,3.6,137.6,3.6,137.6,3.6z"/>
	<path class="st2" d="M154,12c0-5.6,2.6-8.8,7.2-8.8c4.7,0,7.2,3.2,7.2,8.8v18.3c0,5.6-2.6,8.8-7.2,8.8c-4.7,0-7.2-3.2-7.2-8.8V12z
		 M158.8,30.6c0,2.5,1,3.5,2.5,3.5s2.5-1,2.5-3.5v-19c0-2.5-1-3.5-2.5-3.5s-2.5,1-2.5,3.5V30.6z"/>
</g>
<g>
	<path class="st1" d="M13.3,190.5c4.3,0,6.6,2.6,6.6,7.1v0.9h-4.2v-1.2c0-2-0.8-2.8-2.2-2.8c-1.4,0-2.2,0.8-2.2,2.8
		c0,2.1,0.9,3.6,3.8,6.1c3.7,3.3,4.9,5.6,4.9,8.9c0,4.5-2.3,7.1-6.6,7.1s-6.6-2.6-6.6-7.1v-1.7h4.2v2c0,2,0.9,2.7,2.3,2.7
		c1.4,0,2.3-0.7,2.3-2.7c0-2.1-0.9-3.6-3.8-6.1c-3.7-3.3-4.9-5.6-4.9-8.9C6.7,193.1,8.9,190.5,13.3,190.5z"/>
	<path class="st1" d="M27.2,202.8h6.1v4h-6.1v8.3h7.7v4H22.8v-28.3h12.1v4h-7.7V202.8z"/>
	<path class="st1" d="M51.3,197.8v3.7c0,4.5-2.2,7-6.6,7h-2.1v10.6h-4.4v-28.3h6.6C49.1,190.8,51.3,193.3,51.3,197.8z M42.5,194.9
		v9.6h2.1c1.4,0,2.2-0.6,2.2-2.7v-4.2c0-2-0.8-2.7-2.2-2.7H42.5z"/>
	<path class="st1" d="M52.4,190.8h13.7v4h-4.7v24.3h-4.4v-24.3h-4.6V190.8z"/>
	<path class="st1" d="M73,202.8h6.1v4H73v8.3h7.7v4H68.5v-28.3h12.1v4H73V202.8z"/>
	<path class="st1" d="M93.2,210.9L93.2,210.9l3.1-20.1h6.2v28.3h-4.2v-20.3h-0.1l-3,20.3H91l-3.2-20h-0.1v20h-3.9v-28.3H90
		L93.2,210.9z"/>
	<path class="st1" d="M119.4,197.3v1c0,2.9-0.9,4.7-2.9,5.7v0.1c2.4,0.9,3.3,3,3.3,6v2.3c0,4.4-2.3,6.7-6.8,6.7h-7v-28.3h6.7
		C117.4,190.8,119.4,193,119.4,197.3z M110.6,194.9v7.5h1.7c1.7,0,2.7-0.7,2.7-3v-1.6c0-2-0.7-2.9-2.3-2.9H110.6z M110.6,206.4v8.7
		h2.5c1.5,0,2.3-0.7,2.3-2.8v-2.5c0-2.6-0.8-3.4-2.9-3.4H110.6z"/>
	<path class="st1" d="M127.4,202.8h6.1v4h-6.1v8.3h7.7v4h-12.1v-28.3h12.1v4h-7.7V202.8z"/>
	<path class="st1" d="M147.5,219.1c-0.2-0.7-0.4-1.2-0.4-3.5v-4.4c0-2.6-0.9-3.6-2.9-3.6h-1.5v11.5h-4.4v-28.3h6.7
		c4.6,0,6.6,2.1,6.6,6.5v2.2c0,2.9-0.9,4.8-2.9,5.7v0.1c2.2,0.9,3,3,3,6v4.4c0,1.4,0,2.4,0.5,3.4H147.5z M142.7,194.9v8.7h1.7
		c1.7,0,2.7-0.7,2.7-3v-2.8c0-2-0.7-2.9-2.3-2.9H142.7z"/>
	<path class="st1" d="M160.5,210l8.1-19.1h4.9V210h2.1v4h-2.1v5.1H169V214h-8.5V210z M169,210v-10.5h-0.1l-4.3,10.5H169z"/>
	<path class="st1" d="M176.4,203.2h20.2v3.6h-20.2V203.2z"/>
	<path class="st1" d="M205,219.5c-4.5,0-7-2.6-7-7.1v-2.2c0-2.7,0.8-4.8,2.7-5.9v-0.1c-1.9-1-2.7-2.9-2.7-5.7v-0.9
		c0-4.5,2.5-7.1,7-7.1s7,2.6,7,7.1v0.9c0,2.8-0.9,4.6-2.8,5.7v0.1c1.9,1.1,2.8,3.2,2.8,5.9v2.2C211.9,216.9,209.5,219.5,205,219.5z
		 M202.5,199.4c0,2.3,1.1,3,2.5,3c1.4,0,2.5-0.7,2.5-3v-1.6c0-2.5-1.1-3.2-2.5-3.2c-1.4,0-2.5,0.7-2.5,3.2V199.4z M205,215.4
		c1.4,0,2.5-0.7,2.5-3.2v-2.6c0-2.2-0.9-3.2-2.5-3.2s-2.5,1-2.5,3.2v2.6C202.5,214.7,203.6,215.4,205,215.4z"/>
	<path class="st1" d="M215,219.1v-4.3h4.3v3.8l-1.9,4.5h-1.8l1.2-4H215z"/>
	<path class="st1" d="M236.1,194.5c-1.4,0-2.3,0.8-2.3,2.8v3h-4.2v-2.7c0-4.5,2.3-7.1,6.6-7.1c4.4,0,6.6,2.6,6.6,7.1
		c0,3.8-1.4,6.8-5.5,11.2c-2.6,2.8-3.4,4.2-3.4,5.7c0,0.2,0,0.4,0,0.6h8.4v4h-12.9v-3.5c0-3.2,1.1-5.5,4.4-9
		c3.4-3.6,4.4-5.8,4.4-8.9C238.4,195.2,237.5,194.5,236.1,194.5z"/>
	<path class="st1" d="M245.7,197.6c0-4.5,2.4-7.1,6.8-7.1c4.4,0,6.8,2.6,6.8,7.1v14.7c0,4.5-2.4,7.1-6.8,7.1c-4.4,0-6.8-2.6-6.8-7.1
		V197.6z M250.1,212.6c0,2,0.9,2.8,2.3,2.8c1.4,0,2.3-0.8,2.3-2.8v-15.3c0-2-0.9-2.8-2.3-2.8c-1.4,0-2.3,0.8-2.3,2.8V212.6z"/>
	<path class="st1" d="M269,194.5c-1.4,0-2.3,0.8-2.3,2.8v3h-4.2v-2.7c0-4.5,2.3-7.1,6.6-7.1c4.4,0,6.6,2.6,6.6,7.1
		c0,3.8-1.4,6.8-5.5,11.2c-2.6,2.8-3.4,4.2-3.4,5.7c0,0.2,0,0.4,0,0.6h8.4v4h-12.9v-3.5c0-3.2,1.1-5.5,4.4-9
		c3.4-3.6,4.4-5.8,4.4-8.9C271.3,195.2,270.4,194.5,269,194.5z"/>
	<path class="st1" d="M287.5,197.8c0-2.5-0.9-3.2-2.3-3.2s-2.3,0.8-2.3,2.8v1.8h-4.2v-1.5c0-4.5,2.3-7.1,6.6-7.1
		c4.4,0,6.6,2.6,6.6,7.1v0.7c0,3-1,4.9-3.1,5.8v0.1c2.2,1,3.1,3,3.1,5.9v2.2c0,4.5-2.3,7.1-6.6,7.1c-4.4,0-6.6-2.6-6.6-7.1V210h4.2
		v2.6c0,2,0.9,2.8,2.3,2.8s2.3-0.7,2.3-3.2V210c0-2.6-0.9-3.6-2.9-3.6H283v-4h1.7c1.7,0,2.7-0.7,2.7-3V197.8z"/>
	<path class="st1" d="M308.4,199.4c3.1,0,5.6,2.5,5.6,5.6c0,3.1-2.5,5.6-5.6,5.6c-3.1,0-5.6-2.5-5.6-5.6
		C302.7,201.9,305.2,199.4,308.4,199.4z"/>
	<path class="st1" d="M329.5,219.1h-4.4v-28.3h4.4V203h5.1v-12.1h4.5v28.3h-4.5V207h-5.1V219.1z"/>
	<path class="st1" d="M347.2,202.8h6.1v4h-6.1v8.3h7.7v4h-12.1v-28.3h12.1v4h-7.7V202.8z"/>
	<path class="st1" d="M358,190.8h4.4v24.3h7.3v4H358V190.8z"/>
	<path class="st1" d="M378.1,190.5c4.3,0,6.6,2.6,6.6,7.1v0.9h-4.2v-1.2c0-2-0.8-2.8-2.2-2.8c-1.4,0-2.2,0.8-2.2,2.8
		c0,2.1,0.9,3.6,3.8,6.1c3.7,3.3,4.9,5.6,4.9,8.9c0,4.5-2.3,7.1-6.6,7.1s-6.6-2.6-6.6-7.1v-1.7h4.2v2c0,2,0.9,2.7,2.3,2.7
		s2.3-0.7,2.3-2.7c0-2.1-0.9-3.6-3.8-6.1c-3.7-3.3-4.9-5.6-4.9-8.9C371.6,193.1,373.8,190.5,378.1,190.5z"/>
	<path class="st1" d="M387.7,190.8h4.4v28.3h-4.4V190.8z"/>
	<path class="st1" d="M399.8,198.6L399.8,198.6l-0.1,20.5h-4v-28.3h5.6l4.5,16.9h0.1v-16.9h4v28.3h-4.6L399.8,198.6z"/>
	<path class="st1" d="M419.3,207.9l-1.4,2.6v8.7h-4.4v-28.3h4.4v12.3h0.1l5.7-12.3h4.4l-6.2,12.6l6.2,15.7h-4.6L419.3,207.9z"/>
	<path class="st1" d="M430.6,190.8h4.4v28.3h-4.4V190.8z"/>
	<path class="st1" d="M438.7,219.1v-4.3h4.3v3.8l-1.9,4.5h-1.8l1.2-4H438.7z"/>
	<path class="st1" d="M457.7,203.4h5.7v4h-5.7v11.7h-4.4v-28.3H465v4h-7.3V203.4z"/>
	<path class="st1" d="M467.6,190.8h4.4v28.3h-4.4V190.8z"/>
	<path class="st1" d="M479.7,198.6L479.7,198.6l-0.1,20.5h-4v-28.3h5.6l4.5,16.9h0.1v-16.9h4v28.3h-4.6L479.7,198.6z"/>
	<path class="st1" d="M493.3,190.8h4.4v24.3h7.3v4h-11.8V190.8z"/>
	<path class="st1" d="M521.9,219.1h-4.5l-0.8-5.1h-5.5l-0.8,5.1h-4.1l4.5-28.3h6.5L521.9,219.1z M511.7,210.2h4.3l-2.1-14.3h-0.1
		L511.7,210.2z"/>
	<path class="st1" d="M528.4,198.6L528.4,198.6l-0.1,20.5h-4v-28.3h5.6l4.5,16.9h0.1v-16.9h4v28.3h-4.6L528.4,198.6z"/>
	<path class="st1" d="M542,190.8h7c4.4,0,6.6,2.5,6.6,7v14.3c0,4.5-2.2,7-6.6,7h-7V190.8z M546.4,194.9v20.2h2.5
		c1.4,0,2.3-0.7,2.3-2.7v-14.7c0-2-0.8-2.8-2.3-2.8H546.4z"/>
</g>
<g>
	<path class="st2" d="M11.1,189.2c4.3,0,6.6,2.6,6.6,7.1v0.9h-4.2V196c0-2-0.8-2.8-2.2-2.8C9.8,193.2,9,194,9,196
		c0,2.1,0.9,3.6,3.8,6.1c3.7,3.3,4.9,5.6,4.9,8.9c0,4.5-2.3,7.1-6.6,7.1s-6.6-2.6-6.6-7.1v-1.7h4.2v2c0,2,0.9,2.7,2.3,2.7
		c1.4,0,2.3-0.7,2.3-2.7c0-2.1-0.9-3.6-3.8-6.1c-3.7-3.3-4.9-5.6-4.9-8.9C4.5,191.8,6.8,189.2,11.1,189.2z"/>
	<path class="st2" d="M25.1,201.4h6.1v4h-6.1v8.3h7.7v4H20.6v-28.3h12.1v4h-7.7V201.4z"/>
	<path class="st2" d="M49.1,196.5v3.7c0,4.5-2.2,7-6.6,7h-2.1v10.6h-4.4v-28.3h6.6C46.9,189.5,49.1,192,49.1,196.5z M40.4,193.5v9.6
		h2.1c1.4,0,2.2-0.6,2.2-2.7v-4.2c0-2-0.8-2.7-2.2-2.7H40.4z"/>
	<path class="st2" d="M50.3,189.5H64v4h-4.7v24.3h-4.4v-24.3h-4.6V189.5z"/>
	<path class="st2" d="M70.8,201.4h6.1v4h-6.1v8.3h7.7v4H66.4v-28.3h12.1v4h-7.7V201.4z"/>
	<path class="st2" d="M91,209.6L91,209.6l3.1-20.1h6.2v28.3h-4.2v-20.3H96l-3,20.3h-4.2l-3.2-20h-0.1v20h-3.9v-28.3h6.2L91,209.6z"
		/>
	<path class="st2" d="M117.2,196v1c0,2.9-0.9,4.7-2.9,5.7v0.1c2.4,0.9,3.3,3,3.3,6v2.3c0,4.4-2.3,6.7-6.8,6.7h-7v-28.3h6.7
		C115.3,189.5,117.2,191.6,117.2,196z M108.4,193.5v7.5h1.7c1.7,0,2.7-0.7,2.7-3v-1.6c0-2-0.7-2.9-2.3-2.9H108.4z M108.4,205.1v8.7
		h2.5c1.5,0,2.3-0.7,2.3-2.8v-2.5c0-2.6-0.8-3.4-2.9-3.4H108.4z"/>
	<path class="st2" d="M125.2,201.4h6.1v4h-6.1v8.3h7.7v4h-12.1v-28.3h12.1v4h-7.7V201.4z"/>
	<path class="st2" d="M145.3,217.8c-0.2-0.7-0.4-1.2-0.4-3.5v-4.4c0-2.6-0.9-3.6-2.9-3.6h-1.5v11.5H136v-28.3h6.7
		c4.6,0,6.6,2.1,6.6,6.5v2.2c0,2.9-0.9,4.8-2.9,5.7v0.1c2.2,0.9,3,3,3,6v4.4c0,1.4,0,2.4,0.5,3.4H145.3z M140.5,193.5v8.7h1.7
		c1.7,0,2.7-0.7,2.7-3v-2.8c0-2-0.7-2.9-2.3-2.9H140.5z"/>
	<path class="st2" d="M158.3,208.6l8.1-19.1h4.9v19.1h2.1v4h-2.1v5.1h-4.4v-5.1h-8.5V208.6z M166.8,208.6v-10.5h-0.1l-4.3,10.5
		H166.8z"/>
	<path class="st2" d="M174.2,201.8h20.2v3.6h-20.2V201.8z"/>
	<path class="st2" d="M202.8,218.1c-4.5,0-7-2.6-7-7.1v-2.2c0-2.7,0.8-4.8,2.7-5.9v-0.1c-1.9-1-2.7-2.9-2.7-5.7v-0.9
		c0-4.5,2.5-7.1,7-7.1s7,2.6,7,7.1v0.9c0,2.8-0.9,4.6-2.8,5.7v0.1c1.9,1.1,2.8,3.2,2.8,5.9v2.2C209.8,215.5,207.3,218.1,202.8,218.1
		z M200.3,198c0,2.3,1.1,3,2.5,3c1.4,0,2.5-0.7,2.5-3v-1.6c0-2.5-1.1-3.2-2.5-3.2c-1.4,0-2.5,0.7-2.5,3.2V198z M202.8,214.1
		c1.4,0,2.5-0.7,2.5-3.2v-2.6c0-2.2-0.9-3.2-2.5-3.2s-2.5,1-2.5,3.2v2.6C200.3,213.4,201.4,214.1,202.8,214.1z"/>
	<path class="st2" d="M212.8,217.8v-4.3h4.3v3.8l-1.9,4.5h-1.8l1.2-4H212.8z"/>
	<path class="st2" d="M234,193.2c-1.4,0-2.3,0.8-2.3,2.8v3h-4.2v-2.7c0-4.5,2.3-7.1,6.6-7.1c4.4,0,6.6,2.6,6.6,7.1
		c0,3.8-1.4,6.8-5.5,11.2c-2.6,2.8-3.4,4.2-3.4,5.7c0,0.2,0,0.4,0,0.6h8.4v4h-12.9v-3.5c0-3.2,1.1-5.5,4.4-9
		c3.4-3.6,4.4-5.8,4.4-8.9C236.3,193.9,235.4,193.2,234,193.2z"/>
	<path class="st2" d="M243.5,196.3c0-4.5,2.4-7.1,6.8-7.1s6.8,2.6,6.8,7.1V211c0,4.5-2.4,7.1-6.8,7.1s-6.8-2.6-6.8-7.1V196.3z
		 M248,211.3c0,2,0.9,2.8,2.3,2.8c1.4,0,2.3-0.8,2.3-2.8V196c0-2-0.9-2.8-2.3-2.8c-1.4,0-2.3,0.8-2.3,2.8V211.3z"/>
	<path class="st2" d="M266.8,193.2c-1.4,0-2.3,0.8-2.3,2.8v3h-4.2v-2.7c0-4.5,2.3-7.1,6.6-7.1c4.4,0,6.6,2.6,6.6,7.1
		c0,3.8-1.4,6.8-5.5,11.2c-2.6,2.8-3.4,4.2-3.4,5.7c0,0.2,0,0.4,0,0.6h8.4v4h-12.9v-3.5c0-3.2,1.1-5.5,4.4-9
		c3.4-3.6,4.4-5.8,4.4-8.9C269.1,193.9,268.2,193.2,266.8,193.2z"/>
	<path class="st2" d="M285.3,196.5c0-2.5-0.9-3.2-2.3-3.2s-2.3,0.8-2.3,2.8v1.8h-4.2v-1.5c0-4.5,2.3-7.1,6.6-7.1
		c4.4,0,6.6,2.6,6.6,7.1v0.7c0,3-1,4.9-3.1,5.8v0.1c2.2,1,3.1,3,3.1,5.9v2.2c0,4.5-2.3,7.1-6.6,7.1c-4.4,0-6.6-2.6-6.6-7.1v-2.3h4.2
		v2.6c0,2,0.9,2.8,2.3,2.8s2.3-0.7,2.3-3.2v-2.2c0-2.6-0.9-3.6-2.9-3.6h-1.5v-4h1.7c1.7,0,2.7-0.7,2.7-3V196.5z"/>
	<path class="st2" d="M306.2,198c3.1,0,5.6,2.5,5.6,5.6c0,3.1-2.5,5.6-5.6,5.6c-3.1,0-5.6-2.5-5.6-5.6
		C300.6,200.5,303.1,198,306.2,198z"/>
	<path class="st2" d="M327.3,217.8h-4.4v-28.3h4.4v12.1h5.1v-12.1h4.5v28.3h-4.5v-12.1h-5.1V217.8z"/>
	<path class="st2" d="M345,201.4h6.1v4H345v8.3h7.7v4h-12.1v-28.3h12.1v4H345V201.4z"/>
	<path class="st2" d="M355.9,189.5h4.4v24.3h7.3v4h-11.8V189.5z"/>
	<path class="st2" d="M376,189.2c4.3,0,6.6,2.6,6.6,7.1v0.9h-4.2V196c0-2-0.8-2.8-2.2-2.8c-1.4,0-2.2,0.8-2.2,2.8
		c0,2.1,0.9,3.6,3.8,6.1c3.7,3.3,4.9,5.6,4.9,8.9c0,4.5-2.3,7.1-6.6,7.1s-6.6-2.6-6.6-7.1v-1.7h4.2v2c0,2,0.9,2.7,2.3,2.7
		s2.3-0.7,2.3-2.7c0-2.1-0.9-3.6-3.8-6.1c-3.7-3.3-4.9-5.6-4.9-8.9C369.4,191.8,371.6,189.2,376,189.2z"/>
	<path class="st2" d="M385.5,189.5h4.4v28.3h-4.4V189.5z"/>
	<path class="st2" d="M397.6,197.3L397.6,197.3l-0.1,20.5h-4v-28.3h5.6l4.5,16.9h0.1v-16.9h4v28.3h-4.6L397.6,197.3z"/>
	<path class="st2" d="M417.1,206.5l-1.4,2.6v8.7h-4.4v-28.3h4.4v12.3h0.1l5.7-12.3h4.4l-6.2,12.6l6.2,15.7h-4.6L417.1,206.5z"/>
	<path class="st2" d="M428.4,189.5h4.4v28.3h-4.4V189.5z"/>
	<path class="st2" d="M436.5,217.8v-4.3h4.3v3.8l-1.9,4.5H437l1.2-4H436.5z"/>
	<path class="st2" d="M455.5,202.1h5.7v4h-5.7v11.7h-4.4v-28.3h11.8v4h-7.3V202.1z"/>
	<path class="st2" d="M465.4,189.5h4.4v28.3h-4.4V189.5z"/>
	<path class="st2" d="M477.5,197.3L477.5,197.3l-0.1,20.5h-4v-28.3h5.6l4.5,16.9h0.1v-16.9h4v28.3H483L477.5,197.3z"/>
	<path class="st2" d="M491.2,189.5h4.4v24.3h7.3v4h-11.8V189.5z"/>
	<path class="st2" d="M519.7,217.8h-4.5l-0.8-5.1H509l-0.8,5.1h-4.1l4.5-28.3h6.5L519.7,217.8z M509.5,208.8h4.3l-2.1-14.3h-0.1
		L509.5,208.8z"/>
	<path class="st2" d="M526.2,197.3L526.2,197.3l-0.1,20.5h-4v-28.3h5.6l4.5,16.9h0.1v-16.9h4v28.3h-4.6L526.2,197.3z"/>
	<path class="st2" d="M539.8,189.5h7c4.4,0,6.6,2.5,6.6,7v14.3c0,4.5-2.2,7-6.6,7h-7V189.5z M544.3,193.5v20.2h2.5
		c1.4,0,2.3-0.7,2.3-2.7v-14.7c0-2-0.8-2.8-2.3-2.8H544.3z"/>
</g>
</svg>
